<svg aria-hidden="true" style="width:0;height:0;position:absolute;overflow:hidden" xmlns="http://www.w3.org/2000/svg"><defs><symbol id="icon-arrow-up" viewBox="0 0 24 32"><path d="M13.412 2.587a2.003 2.003 0 0 0-2.831 0l-10 10c-.781.781-.781 2.05 0 2.831s2.05.781 2.831 0l6.587-6.594v19.175c0 1.106.894 2 2 2s2-.894 2-2V8.824l6.587 6.588c.781.781 2.05.781 2.831 0s.781-2.05 0-2.831l-10-10z"/></symbol><symbol id="icon-search" viewBox="0 0 32 32"><path d="M26 13c0 2.869-.931 5.519-2.5 7.669l7.913 7.919c.781.781.781 2.05 0 2.831s-2.05.781-2.831 0L20.67 23.5c-2.15 1.575-4.8 2.5-7.669 2.5-7.181 0-13-5.819-13-13s5.819-13 13-13 13 5.819 13 13zm-13 9c4.969 0 9-4.031 9-9s-4.031-9-9-9-9 4.031-9 9 4.031 9 9 9z"/></symbol></defs></svg>