<svg aria-hidden="true" style="width:0;height:0;position:absolute;overflow:hidden" xmlns="http://www.w3.org/2000/svg"><defs><symbol id="icon-arrow-up" viewBox="0 0 24 32"><path d="M13.412 2.587a2.003 2.003 0 0 0-2.831 0l-10 10c-.781.781-.781 2.05 0 2.831s2.05.781 2.831 0l6.587-6.594v19.175c0 1.106.894 2 2 2s2-.894 2-2V8.824l6.587 6.588c.781.781 2.05.781 2.831 0s.781-2.05 0-2.831l-10-10z"/></symbol><symbol id="icon-download" viewBox="0 0 32 32"><path d="M18 2c0-1.106-.894-2-2-2s-2 .894-2 2v15.169l-4.588-4.588c-.781-.781-2.05-.781-2.831 0s-.781 2.05 0 2.831l8 8c.781.781 2.05.781 2.831 0l8-8c.781-.781.781-2.05 0-2.831s-2.05-.781-2.831 0L18 17.168V1.999zM4 22c-2.206 0-4 1.794-4 4v2c0 2.206 1.794 4 4 4h24c2.206 0 4-1.794 4-4v-2c0-2.206-1.794-4-4-4h-6.344l-2.831 2.831a3.997 3.997 0 0 1-5.656 0L10.344 22H4zm23 6.5c-.831 0-1.5-.669-1.5-1.5s.669-1.5 1.5-1.5 1.5.669 1.5 1.5-.669 1.5-1.5 1.5z"/></symbol><symbol id="icon-likes" viewBox="0 0 32 32"><path d="M19.587 2.056a3.002 3.002 0 0 1 2.356 3.531l-.144.713a14.9 14.9 0 0 1-1.8 4.7h9a3.001 3.001 0 0 1 .231 5.994 3 3 0 0 1-1.662 4.95c.275.45.431.988.431 1.556a2.997 2.997 0 0 1-2.069 2.85A3.001 3.001 0 0 1 22.999 30h-4.594a6.011 6.011 0 0 1-3.331-1.006l-2.406-1.606a6.001 6.001 0 0 1-2.669-4.994v-6.95c0-1.825.831-3.544 2.25-4.688l.463-.369a8.983 8.983 0 0 0 3.2-5.263l.144-.713a3.002 3.002 0 0 1 3.531-2.356zM2 12h4c1.106 0 2 .894 2 2v14c0 1.106-.894 2-2 2H2c-1.106 0-2-.894-2-2V14c0-1.106.894-2 2-2z"/></symbol><symbol id="icon-comments" viewBox="0 0 40 32"><path d="M13 22c7.181 0 13-4.925 13-11S20.181 0 13 0 0 4.925 0 11c0 2.412.919 4.644 2.475 6.462a5.845 5.845 0 0 1-.887 1.544 7.192 7.192 0 0 1-1.1 1.125.477.477 0 0 1-.069.05l-.013.012c-.344.256-.494.706-.356 1.113S.569 22 1 22c1.362 0 2.737-.35 3.881-.781a13.954 13.954 0 0 0 1.581-.712c1.919.95 4.15 1.494 6.538 1.494zm15-11c0 7.019-6.194 12.306-13.531 12.938 1.519 4.65 6.556 8.063 12.531 8.063 2.387 0 4.619-.544 6.544-1.494.469.25 1 .494 1.575.712C36.263 31.65 37.638 32 39 32c.431 0 .819-.281.95-.694s-.013-.863-.362-1.119l-.013-.012c-.013-.012-.038-.025-.069-.05a7.12 7.12 0 0 1-1.1-1.125 5.9 5.9 0 0 1-.888-1.544c1.556-1.813 2.475-4.044 2.475-6.463 0-5.8-5.306-10.556-12.038-10.969.025.319.038.644.038.969z"/></symbol><symbol id="icon-views" viewBox="0 0 36 32"><path d="M18 2C12.95 2 8.906 4.3 5.963 7.037 3.038 9.75 1.082 13 .157 15.231a1.991 1.991 0 0 0 0 1.538C1.082 19 3.038 22.25 5.963 24.963 8.907 27.701 12.95 30.001 18 30.001s9.094-2.3 12.038-5.038c2.925-2.719 4.881-5.962 5.813-8.194a1.989 1.989 0 0 0 0-1.537c-.931-2.231-2.888-5.481-5.813-8.194C27.094 4.301 23.05 2.001 18 2.001zm9 14c0 4.969-4.031 9-9 9s-9-4.031-9-9 4.031-9 9-9 9 4.031 9 9zm-9-4c0 2.206-1.794 4-4 4a3.921 3.921 0 0 1-1.975-.525c-.012.175-.025.344-.025.525 0 3.313 2.688 6 6 6s6-2.688 6-6a6.002 6.002 0 0 0-6.525-5.975c.331.581.525 1.256.525 1.975z"/></symbol><symbol id="icon-search" viewBox="0 0 32 32"><path d="M26 13c0 2.869-.931 5.519-2.5 7.669l7.913 7.919c.781.781.781 2.05 0 2.831s-2.05.781-2.831 0L20.67 23.5c-2.15 1.575-4.8 2.5-7.669 2.5-7.181 0-13-5.819-13-13s5.819-13 13-13 13 5.819 13 13zm-13 9c4.969 0 9-4.031 9-9s-4.031-9-9-9-9 4.031-9 9 4.031 9 9 9z"/></symbol></defs></svg>