<svg aria-hidden="true" style="position: absolute; width: 0; height: 0; overflow: hidden;" version="1.1" xmlns="http://www.w3.org/2000/svg" xmlns:xlink="http://www.w3.org/1999/xlink">
<defs>
<symbol id="icon-arrow-up" viewBox="0 0 24 32">
<path d="M13.412 2.587c-0.781-0.781-2.050-0.781-2.831 0l-10 10c-0.781 0.781-0.781 2.050 0 2.831s2.050 0.781 2.831 0l6.587-6.594v19.175c0 1.106 0.894 2 2 2s2-0.894 2-2v-19.175l6.587 6.588c0.781 0.781 2.050 0.781 2.831 0s0.781-2.050 0-2.831l-10-10z"></path>
</symbol>
<symbol id="icon-download" viewBox="0 0 32 32">
<path d="M18 2c0-1.106-0.894-2-2-2s-2 0.894-2 2v15.169l-4.588-4.588c-0.781-0.781-2.050-0.781-2.831 0s-0.781 2.050 0 2.831l8 8c0.781 0.781 2.050 0.781 2.831 0l8-8c0.781-0.781 0.781-2.050 0-2.831s-2.050-0.781-2.831 0l-4.581 4.587v-15.169zM4 22c-2.206 0-4 1.794-4 4v2c0 2.206 1.794 4 4 4h24c2.206 0 4-1.794 4-4v-2c0-2.206-1.794-4-4-4h-6.344l-2.831 2.831c-1.563 1.563-4.094 1.563-5.656 0l-2.825-2.831h-6.344zM27 28.5c-0.831 0-1.5-0.669-1.5-1.5s0.669-1.5 1.5-1.5 1.5 0.669 1.5 1.5-0.669 1.5-1.5 1.5z"></path>
</symbol>
<symbol id="icon-likes" viewBox="0 0 32 32">
<path d="M19.587 2.056c1.625 0.325 2.681 1.906 2.356 3.531l-0.144 0.713c-0.331 1.669-0.944 3.256-1.8 4.7h9c1.656 0 3 1.344 3 3 0 1.581-1.219 2.875-2.769 2.994 0.481 0.531 0.769 1.238 0.769 2.006 0 1.462-1.050 2.681-2.431 2.944 0.275 0.45 0.431 0.988 0.431 1.556 0 1.331-0.869 2.462-2.069 2.85 0.044 0.206 0.069 0.425 0.069 0.65 0 1.656-1.344 3-3 3h-4.594c-1.188 0-2.344-0.35-3.331-1.006l-2.406-1.606c-1.669-1.113-2.669-2.988-2.669-4.994v-6.95c0-1.825 0.831-3.544 2.25-4.688l0.463-0.369c1.656-1.325 2.787-3.188 3.2-5.263l0.144-0.713c0.325-1.625 1.906-2.681 3.531-2.356zM2 12h4c1.106 0 2 0.894 2 2v14c0 1.106-0.894 2-2 2h-4c-1.106 0-2-0.894-2-2v-14c0-1.106 0.894-2 2-2z"></path>
</symbol>
<symbol id="icon-comments" viewBox="0 0 40 32">
<path d="M13 22c7.181 0 13-4.925 13-11s-5.819-11-13-11-13 4.925-13 11c0 2.412 0.919 4.644 2.475 6.462-0.219 0.587-0.544 1.106-0.887 1.544-0.3 0.387-0.606 0.688-0.831 0.894-0.113 0.1-0.206 0.181-0.269 0.231-0.031 0.025-0.056 0.044-0.069 0.050l-0.013 0.012c-0.344 0.256-0.494 0.706-0.356 1.113s0.519 0.694 0.95 0.694c1.362 0 2.737-0.35 3.881-0.781 0.575-0.219 1.112-0.462 1.581-0.712 1.919 0.95 4.15 1.494 6.538 1.494zM28 11c0 7.019-6.194 12.306-13.531 12.938 1.519 4.65 6.556 8.063 12.531 8.063 2.387 0 4.619-0.544 6.544-1.494 0.469 0.25 1 0.494 1.575 0.712 1.144 0.431 2.519 0.781 3.881 0.781 0.431 0 0.819-0.281 0.95-0.694s-0.013-0.863-0.362-1.119v0 0l-0.013-0.012c-0.013-0.012-0.038-0.025-0.069-0.050-0.063-0.050-0.156-0.125-0.269-0.231-0.225-0.206-0.531-0.506-0.831-0.894-0.344-0.438-0.669-0.962-0.888-1.544 1.556-1.813 2.475-4.044 2.475-6.463 0-5.8-5.306-10.556-12.038-10.969 0.025 0.319 0.038 0.644 0.038 0.969z"></path>
</symbol>
<symbol id="icon-views" viewBox="0 0 36 32">
<path d="M18 2c-5.050 0-9.094 2.3-12.037 5.037-2.925 2.713-4.881 5.963-5.806 8.194-0.206 0.494-0.206 1.044 0 1.538 0.925 2.231 2.881 5.481 5.806 8.194 2.944 2.738 6.987 5.038 12.037 5.038s9.094-2.3 12.038-5.038c2.925-2.719 4.881-5.962 5.813-8.194 0.206-0.494 0.206-1.044 0-1.537-0.931-2.231-2.888-5.481-5.813-8.194-2.944-2.737-6.988-5.037-12.038-5.037zM27 16c0 4.969-4.031 9-9 9s-9-4.031-9-9 4.031-9 9-9 9 4.031 9 9zM18 12c0 2.206-1.794 4-4 4-0.719 0-1.394-0.188-1.975-0.525-0.012 0.175-0.025 0.344-0.025 0.525 0 3.313 2.688 6 6 6s6-2.688 6-6-2.688-6-6-6c-0.175 0-0.35 0.006-0.525 0.025 0.331 0.581 0.525 1.256 0.525 1.975z"></path>
</symbol>
<symbol id="icon-search" viewBox="0 0 32 32">
<path d="M26 13c0 2.869-0.931 5.519-2.5 7.669l7.913 7.919c0.781 0.781 0.781 2.050 0 2.831s-2.050 0.781-2.831 0l-7.912-7.919c-2.15 1.575-4.8 2.5-7.669 2.5-7.181 0-13-5.819-13-13s5.819-13 13-13 13 5.819 13 13zM13 22c4.969 0 9-4.031 9-9s-4.031-9-9-9-9 4.031-9 9 4.031 9 9 9z"></path>
</symbol>
</defs>
</svg>
