<svg aria-hidden="true" style="position: absolute; width: 0; height: 0; overflow: hidden;" version="1.1"
    xmlns="http://www.w3.org/2000/svg" xmlns:xlink="http://www.w3.org/1999/xlink">
    <defs>
        <symbol id="icon-arrow-up" viewBox="0 0 24 32">
            <path
                d="M13.412 2.587c-0.781-0.781-2.050-0.781-2.831 0l-10 10c-0.781 0.781-0.781 2.050 0 2.831s2.050 0.781 2.831 0l6.587-6.594v19.175c0 1.106 0.894 2 2 2s2-0.894 2-2v-19.175l6.587 6.588c0.781 0.781 2.050 0.781 2.831 0s0.781-2.050 0-2.831l-10-10z">
            </path>
        </symbol>
        <symbol id="icon-search" viewBox="0 0 32 32">
            <path
                d="M26 13c0 2.869-0.931 5.519-2.5 7.669l7.913 7.919c0.781 0.781 0.781 2.050 0 2.831s-2.050 0.781-2.831 0l-7.912-7.919c-2.15 1.575-4.8 2.5-7.669 2.5-7.181 0-13-5.819-13-13s5.819-13 13-13 13 5.819 13 13zM13 22c4.969 0 9-4.031 9-9s-4.031-9-9-9-9 4.031-9 9 4.031 9 9 9z">
            </path>
        </symbol>
    </defs>
</svg>